<svg xmlns="http://www.w3.org/2000/svg" viewBox="0 0 32 32" class="link-toggler"><g fill="none" fill-rule="evenodd"><path fill="#010101" d="M13.82 15.7c0 .76.19 1.37.57 1.83a1.88 1.88 0 0 0 1.77.65l.22-.03a2.96 2.96 0 0 0 1.89-1.57 5.53 5.53 0 0 0 .65-2.27l.02-1.34v-.72c-1.13 0-1.98.07-2.56.23-1.7.48-2.56 1.56-2.56 3.23m-5 .58c0-1.34.32-2.48.98-3.43a6.1 6.1 0 0 1 2.7-2.16c1.06-.44 2.35-.76 3.88-.96l2.56-.23v-.5c0-1.23-.14-2.07-.4-2.5-.42-.58-1.06-.87-1.93-.87h-.23c-.64.06-1.2.26-1.66.61-.47.35-.77.84-.9 1.46-.08.39-.27.6-.58.67l-3.35-.41c-.33-.08-.5-.25-.5-.52a5.58 5.58 0 0 1 2.46-4.04A9.12 9.12 0 0 1 16.38 2h.73c2.2 0 3.93.57 5.17 1.71a5.54 5.54 0 0 1 .93 1.22c.1.18.19.43.27.76.07.33.13.56.17.68.04.13.07.4.09.82l.03.74v7.04a4.17 4.17 0 0 0 .64 2.28l.67.9c.11.17.17.32.17.46 0 .15-.08.29-.23.4L22.4 21.3c-.23.18-.51.2-.84.06a9.84 9.84 0 0 1-1.98-2.27 7.14 7.14 0 0 1-3.2 2.21c-.66.2-1.48.3-2.45.3a5.1 5.1 0 0 1-3.68-1.39c-.96-.92-1.44-2.22-1.44-3.91"/><path fill="#F90" d="M.06 24.58c.1-.15.25-.16.46-.03a31 31 0 0 0 15.83 4.22 31.3 31.3 0 0 0 12.07-2.47c.3-.12.52-.06.69.17.16.23.1.45-.16.64a20.58 20.58 0 0 1-6.93 3.17 23.53 23.53 0 0 1-14.6-.77 23.63 23.63 0 0 1-7.25-4.46c-.11-.1-.17-.2-.17-.3 0-.05.02-.11.06-.17"/><path fill="#F90" d="M26.04 25.08c.03-.08.1-.16.17-.24.49-.33.95-.55 1.4-.67a9.1 9.1 0 0 1 2.15-.32c.2-.02.38 0 .55.03.88.08 1.4.23 1.57.44.08.12.12.29.12.52v.2c0 .68-.18 1.48-.55 2.4a5.59 5.59 0 0 1-1.54 2.23c-.1.08-.19.12-.27.12a.26.26 0 0 1-.11-.03c-.12-.06-.15-.17-.09-.32.72-1.69 1.08-2.86 1.08-3.52 0-.21-.04-.37-.12-.47-.2-.23-.74-.35-1.63-.35a13.67 13.67 0 0 0-2.5.24c-.12 0-.2-.02-.23-.06-.04-.04-.05-.08-.03-.12 0-.02 0-.05.03-.08"/></g></svg>