<svg xmlns="http://www.w3.org/2000/svg" viewBox="0 0 32 32"><g fill="none" fill-rule="evenodd"><path fill="#FFF" d="M0 0h32v32H0z"/><path fill="#010101" d="M14.1 11.99c0 .66.16 1.2.49 1.59a1.65 1.65 0 001.55.57l.2-.02a2.59 2.59 0 001.65-1.38 4.84 4.84 0 00.57-1.99l.01-1.16v-.64c-.98 0-1.73.07-2.24.2-1.5.43-2.24 1.37-2.24 2.83m-4.38.5c0-1.16.3-2.16.87-3a5.34 5.34 0 012.37-1.88 12.8 12.8 0 013.38-.84c.46-.05 1.2-.12 2.24-.2v-.44c0-1.08-.12-1.81-.36-2.18-.35-.51-.91-.77-1.68-.77h-.2c-.56.05-1.04.23-1.45.54-.4.3-.67.73-.79 1.27-.07.34-.24.53-.5.58l-2.94-.35c-.28-.07-.43-.22-.43-.46l.03-.18c.29-1.5 1-2.63 2.12-3.36A7.98 7.98 0 0116.33 0h.64c1.93 0 3.44.5 4.53 1.5a4.85 4.85 0 01.81 1.07c.09.15.16.37.23.66l.15.6c.04.11.06.35.08.71l.03.65v6.16a3.65 3.65 0 00.56 2l.58.78c.1.15.15.29.15.4 0 .14-.06.26-.2.36l-2.29 1.99c-.2.15-.45.17-.74.05a8.6 8.6 0 01-1.73-1.99 6.25 6.25 0 01-2.8 1.94c-.58.17-1.29.25-2.14.25-1.3 0-2.38-.4-3.22-1.2a4.55 4.55 0 01-1.26-3.43"/><path fill="#F90" d="M2.05 19.75c.09-.13.22-.14.4-.02a27.12 27.12 0 0013.86 3.69 27.4 27.4 0 0010.56-2.17c.25-.1.45-.05.6.16.14.2.1.39-.14.56a18 18 0 01-6.06 2.77 20.59 20.59 0 01-19.12-4.58c-.1-.08-.15-.17-.15-.25 0-.06.02-.1.05-.16"/><path fill="#F90" d="M24.78 20.19a.8.8 0 01.15-.2 4 4 0 011.23-.6 8.3 8.3 0 011.88-.27c.17-.02.33-.01.48.02.77.07 1.23.2 1.38.38.07.1.1.26.1.46v.18c0 .6-.16 1.3-.48 2.1-.33.8-.78 1.45-1.35 1.95-.09.06-.16.1-.23.1a.17.17 0 01-.1-.03c-.1-.05-.13-.14-.08-.28.63-1.47.94-2.5.94-3.08 0-.18-.03-.32-.1-.4-.17-.2-.65-.3-1.43-.3a11.96 11.96 0 00-2.18.2c-.1 0-.17-.02-.2-.06-.04-.03-.05-.06-.03-.1 0-.02 0-.04.02-.07"/><g transform="translate(8 24)"><rect width="24" height="8" fill="#297EF1" fill-rule="nonzero" rx="1"/><path fill="#FFF" d="M3.05 6.2V1.86h1.5c.28 0 .52.03.73.08.2.06.36.13.49.23s.22.23.28.37a1.22 1.22 0 01.05.77.85.85 0 01-.14.26.85.85 0 01-.24.22c-.1.07-.21.12-.35.17.6.13.9.45.9.97a1.12 1.12 0 01-.41.91c-.14.11-.3.2-.5.26a2 2 0 01-.67.1H3.05zm.8-1.9v1.27h.83c.15 0 .27-.02.37-.05.1-.04.19-.09.25-.15s.1-.13.13-.2a.8.8 0 000-.52.48.48 0 00-.15-.19.66.66 0 00-.24-.12 1.3 1.3 0 00-.37-.04h-.81zm0-.56h.65c.28 0 .48-.05.63-.15.14-.1.21-.26.21-.48 0-.22-.06-.38-.2-.48-.12-.1-.32-.14-.6-.14h-.68v1.25zm7.05-1.88v.64H8.97v1.2h1.52v.63H8.97v1.23h1.93v.64H8.16V1.86h2.74zm4.95 0v.67h-1.3V6.2h-.81V2.53h-1.31v-.67h3.42zm5.53 4.34h-.63a.27.27 0 01-.27-.18l-.32-.89h-1.8l-.32.89a.28.28 0 01-.27.18h-.62l1.7-4.34h.82l1.7 4.34zm-2.81-1.64h1.38l-.52-1.44a6.59 6.59 0 01-.17-.51 10 10 0 01-.16.52l-.53 1.43z"/></g></g></svg>